{
  "accessors": [
    {
      "bufferView": 1,
      "componentType": 5126,
      "count": 3168,
      "max": [
        11.00403881072998,
        0.67412698268890381,
        10.910385131835938
      ],
      "min": [
        -11.441932678222656,
        -0.67533701658248901,
        -0.1698639988899231
      ],
      "type": "VEC3"
    },
    {
      "bufferView": 1,
      "byteOffset": 38016,
      "componentType": 5126,
      "count": 3168,
      "max": [
        0.99995768070220947,
        -0.0091996109113097191,
        -0
      ],
      "min": [
        -0.99995768070220947,
        -0.999961256980896,
        -0
      ],
      "type": "VEC3"
    },
    {
      "bufferView": 0,
      "componentType": 5125,
      "count": 4752,
      "max": [
        3167
      ],
      "min": [
        0
      ],
      "type": "SCALAR"
    },
    {
      "bufferView": 1,
      "byteOffset": 76032,
      "componentType": 5126,
      "count": 65532,
      "max": [
        11.149665832519531,
        0.80230897665023804,
        11.356446266174316
      ],
      "min": [
        -11.562158584594727,
        -0.73949897289276123,
        10.386423110961914
      ],
      "type": "VEC3"
    },
    {
      "bufferView": 1,
      "byteOffset": 862416,
      "componentType": 5126,
      "count": 65532,
      "max": [
        1,
        1,
        1
      ],
      "min": [
        -1,
        -1,
        -1
      ],
      "type": "VEC3"
    },
    {
      "bufferView": 0,
      "byteOffset": 19008,
      "componentType": 5125,
      "count": 265941,
      "max": [
        65531
      ],
      "min": [
        0
      ],
      "type": "SCALAR"
    },
    {
      "bufferView": 1,
      "byteOffset": 1648800,
      "componentType": 5126,
      "count": 65533,
      "max": [
        11.149665832519531,
        0.80230897665023804,
        11.317445755004883
      ],
      "min": [
        -11.562158584594727,
        -0.73949897289276123,
        10.380520820617676
      ],
      "type": "VEC3"
    },
    {
      "bufferView": 1,
      "byteOffset": 2435196,
      "componentType": 5126,
      "count": 65533,
      "max": [
        0.99962180852890015,
        0.99996387958526611,
        0.58698713779449463
      ],
      "min": [
        -0.99962180852890015,
        -0.99996387958526611,
        -1
      ],
      "type": "VEC3"
    },
    {
      "bufferView": 0,
      "byteOffset": 1082772,
      "componentType": 5125,
      "count": 143964,
      "max": [
        65532
      ],
      "min": [
        0
      ],
      "type": "SCALAR"
    },
    {
      "bufferView": 1,
      "byteOffset": 3221592,
      "componentType": 5126,
      "count": 26159,
      "max": [
        11.149665832519531,
        0.76617300510406494,
        11.356446266174316
      ],
      "min": [
        -11.562158584594727,
        -0.70336300134658813,
        10.380520820617676
      ],
      "type": "VEC3"
    },
    {
      "bufferView": 1,
      "byteOffset": 3535500,
      "componentType": 5126,
      "count": 26159,
      "max": [
        0.99962180852890015,
        0.82459390163421631,
        1
      ],
      "min": [
        -0.99962180852890015,
        -0.82459545135498047,
        -0.99999785423278809
      ],
      "type": "VEC3"
    },
    {
      "bufferView": 0,
      "byteOffset": 1658628,
      "componentType": 5125,
      "count": 76239,
      "max": [
        26158
      ],
      "min": [
        0
      ],
      "type": "SCALAR"
    }
  ],
  "asset": {
    "extras": {
      "author": "thomasrigsby (https://sketchfab.com/thomasrigsby)",
      "license": "CC-BY-SA-4.0 (http://creativecommons.org/licenses/by-sa/4.0/)",
      "source": "https://sketchfab.com/3d-models/curtain-2507fcb1cc554085a94fc6b496c94ee7",
      "title": "Curtain"
    },
    "generator": "Sketchfab-6.31.0",
    "version": "2.0"
  },
  "bufferViews": [
    {
      "buffer": 0,
      "byteLength": 1963584,
      "byteOffset": 0,
      "name": "floatBufferViews",
      "target": 34963
    },
    {
      "buffer": 0,
      "byteLength": 3849408,
      "byteOffset": 1963584,
      "byteStride": 12,
      "name": "floatBufferViews",
      "target": 34962
    }
  ],
  "buffers": [
    {
      "byteLength": 5812992,
      "uri": "scene.bin"
    }
  ],
  "materials": [
    {
      "doubleSided": true,
      "emissiveFactor": [
        0,
        0,
        0
      ],
      "name": "material_0",
      "pbrMetallicRoughness": {
        "baseColorFactor": [
          1,
          1,
          1,
          1
        ],
        "metallicFactor": 0,
        "roughnessFactor": 0.59999999999999998
      }
    }
  ],
  "meshes": [
    {
      "primitives": [
        {
          "attributes": {
            "NORMAL": 1,
            "POSITION": 0
          },
          "indices": 2,
          "material": 0,
          "mode": 4
        }
      ]
    },
    {
      "primitives": [
        {
          "attributes": {
            "NORMAL": 4,
            "POSITION": 3
          },
          "indices": 5,
          "material": 0,
          "mode": 4
        }
      ]
    },
    {
      "primitives": [
        {
          "attributes": {
            "NORMAL": 7,
            "POSITION": 6
          },
          "indices": 8,
          "material": 0,
          "mode": 4
        }
      ]
    },
    {
      "primitives": [
        {
          "attributes": {
            "NORMAL": 10,
            "POSITION": 9
          },
          "indices": 11,
          "material": 0,
          "mode": 4
        }
      ]
    }
  ],
  "nodes": [
    {
      "children": [
        1
      ],
      "name": "RootNode (gltf orientation matrix)",
      "rotation": [
        -0.70710678118654746,
        -0,
        -0,
        0.70710678118654757
      ]
    },
    {
      "children": [
        2
      ],
      "name": "RootNode (model correction matrix)"
    },
    {
      "children": [
        3,
        4,
        5,
        6
      ],
      "name": "curtain2.obj.cleaner.materialmerger.gles"
    },
    {
      "mesh": 0,
      "name": ""
    },
    {
      "mesh": 1,
      "name": ""
    },
    {
      "mesh": 2,
      "name": ""
    },
    {
      "mesh": 3,
      "name": ""
    }
  ],
  "scene": 0,
  "scenes": [
    {
      "name": "OSG_Scene",
      "nodes": [
        0
      ]
    }
  ]
}

