<?xml version="1.0" encoding="utf-8"?>
<!-- Generator: Adobe Illustrator 14.0.0, SVG Export Plug-In . SVG Version: 6.00 Build 43363)  -->
<!DOCTYPE svg PUBLIC "-//W3C//DTD SVG 1.1//EN" "http://www.w3.org/Graphics/SVG/1.1/DTD/svg11.dtd">
<svg version="1.1" id="Calque_1" xmlns="http://www.w3.org/2000/svg" xmlns:xlink="http://www.w3.org/1999/xlink" x="0px" y="0px"
	 width="498.898px" height="133.228px" viewBox="0 0 498.898 133.228" enable-background="new 0 0 498.898 133.228"
	 xml:space="preserve">
<g>
	<g>
		<g>
			<g>
				<path fill="#FAB800" d="M20.026,75.344c0.13,0.025,4.257,1.719,8.62,3.504l13.394,5.43c3.174,1.238,4.813,4.583,3.913,7.991
					c-1.086,4.249-6.179,8.278-17.093,6.809c-4.344-0.598-14.44-2.744-14.55-2.769l0.072,0.024
					c-0.241-0.085-6.321-2.276-10.077-0.259c-1.342,0.722-2.209,1.853-2.61,3.441c-1.415,5.664,4.42,7.637,4.458,7.661
					c2.092,0.747,4.396,1.275,6.246,1.654l1.566,0.418c0.109,0.01,13.374,3.148,23.87,3.014c6.908-0.1,23.685-1.669,30.242-13.698
					c0.964-1.769,2.312-7.955,1.645-11.886c-0.803-4.543-2.157-9.078-10.05-14.188c-2-1.271-8.212-3.346-13.721-5.171
					c-2.892-0.932-5.666-1.863-7.113-2.451c-9.668-3.885-11.396-7.437-11.554-9.205c-0.117-1.026,0.215-3.367,2.063-5.461
					c2.323-2.5,6.177-3.811,11.474-3.811c7.97,0,11.044,0.944,14.334,1.9c0.617,0.222,1.242,0.416,1.922,0.59
					c2.483,0.647,4.456,0.558,5.863-0.296c1.656-1.043,2.008-2.807,2.135-3.419c0.194-1.091,0.45-4.754-5.34-7.093
					c-0.476-0.182-12.321-4.792-30.98-2.207c-2.607,0.351-7.748,1.357-12.56,4.06C9.14,43.794,5.474,49.853,5.604,57.357
					c0.09,5.429,2.615,10.216,7.337,13.955c3.52,2.782,6.981,3.997,7.118,4.032"/>
			</g>
		</g>
		<path fill="#FAB800" d="M139.18,17.277c-30.604,0-55.362,24.776-55.362,55.373c0,30.572,24.759,55.369,55.362,55.369
			c30.582,0,55.383-24.797,55.383-55.369C194.563,42.053,169.762,17.277,139.18,17.277z M139.19,92.423
			c-10.895,0-19.801-8.868-19.801-19.773c0-10.932,8.906-19.788,19.801-19.788c10.884,0,19.765,8.856,19.765,19.788
			C158.955,83.555,150.074,92.423,139.19,92.423z"/>
		<path fill="#FAB800" d="M211.8,46.195c0,0-0.44-8.822,8.994-8.822c5.395,0,8.796,4.889,15.132,4.889
			c8.112,0,10.269-4.889,21.254-4.889c12.564,0,13.277,4.889,21.032,4.889c8.197,0,9.677-4.889,24.111-4.889
			c7.666,0,16.114,4.463,16.114,14.079c0,13.11,0.035,47.786,0.035,48.004c0,4.941-4.018,8.996-9.006,8.996
			c-4.969,0-8.981-4.055-8.981-8.996c0,0,0-35.89,0-39.332c0-4.384,0.05-13.17-7.636-13.354c0,0-18.736-2.58-18.736,30.228
			c0,0.523,0.02,22.279,0.02,22.459c0,4.941-4.032,8.996-8.996,8.996c-4.876,0-8.858-3.886-8.993-8.722l0,0c0,0,0-31.32,0-39.617
			c0-2.879,0.495-13.344-7.76-13.344c-15.962,0-18.589,16.311-18.589,29.69v22.996c0,4.941-4.032,8.996-8.996,8.996
			c-4.877,0-8.864-3.885-8.999-8.722V46.195"/>
		<g>
			<g>
				<g>
					<g>
						<path fill="#FAB800" d="M372.214,66.06c0.137-4.142,3.486-7.345,7.666-7.345h-0.01h0.01h0.024h0.05h0.063h-0.112h-0.047
							c0.022,0,0.097,0,9.766,0c3.16,0,5.684-0.927,7.474-2.755c2.832-2.829,2.939-6.983,2.939-7.765
							c0.013-1.079-0.145-4.583-2.707-7.143c-1.767-1.781-4.287-2.71-7.487-2.71h-9.899c-6.734,0-6.734-1.544-6.734-5.614
							c0-0.084,0.206-8.363,6.836-10.697c2.093-0.772,4.446-1.138,6.956-1.153h0.098h11.693h0.145c4.142,0,7.865-2.767,9.04-6.737
							c0.271-0.884,0.409-1.786,0.409-2.692c0-5.2-4.252-9.424-9.449-9.424c-0.188,0-11.397,0.035-11.397,0.035
							c-1.568,0-3.255,0.103-5.011,0.284c-5.33,0.565-10.104,1.798-14.259,3.626c-17.448,7.733-18.275,23.526-18.275,23.698
							l-0.018,0.244c-0.872,5.467-2.289,8.431-7.481,8.431c-2.588,0-4.65,0.819-6.167,2.476c-2.675,2.842-2.572,7.252-2.572,7.315
							V48.07c0,8.969,8.478,10.645,8.609,10.66c4.008,0.334,7.023,3.569,7.023,7.512l0,0c0,0.209-0.047,20.388-0.047,31.034
							c0,3.751,1.021,6.645,2.976,8.627c2.586,2.575,5.908,2.601,6.027,2.601h4.561c0.269,0,2.767-0.05,5.108-1.684
							c1.91-1.295,4.201-4.005,4.201-9.444V66.06z"/>
					</g>
				</g>
			</g>
		</g>
		<g>
			<path fill="#FAB800" d="M437.213,95.243c0.677,1.479,1.019,3.063,1.019,4.742c0,8.821-4.904,12.617-7.28,14.595
				c-5.979,4.951-14.482,4.593-14.579,4.593l0,0h-4.633c-2.914,0-6.149,2.415-6.149,5.857c0,3.676,2.461,5.897,6.59,5.897h4.214
				c0.225,0,6.147,0.239,12.511-1.793c6.423-2.051,15.294-6.874,21.431-18.191c1.46-2.685,14.104-31.165,23.317-51.932l7.03-15.778
				c0.409-0.971,0.459-1.925,0.188-2.794c-0.307-0.986-1.044-1.803-2.095-2.366c-1.813-0.944-4.349-0.994-6.837-0.211
				c-2.563,0.824-4.72,2.515-5.557,4.401c-0.077,0.247-10.508,22.791-11.267,24.345c-2.035,4.067-4.498,6.433-6.75,6.433
				c-2.649,0-4.301-0.318-8.102-6.799c-0.291-0.5-11.698-20.634-13.526-23.782c-1.026-1.985-3.25-3.676-5.945-4.536
				c-2.707-0.844-5.489-0.81-7.446,0.212c-1.153,0.61-1.963,1.507-2.291,2.563c-0.307,0.952-0.22,2.005,0.216,3.059
				C411.358,43.965,435.753,92.194,437.213,95.243z"/>
		</g>
		<g>
			<g>
				<g>
					<g>
						<g>
							<g>
								<path fill="#FAB800" d="M486.497,108.009c-6.227,0-10.431-4.493-10.431-10.51c0-6.027,4.252-10.576,10.48-10.576
									c6.024,0,10.545,4.549,10.545,10.576C497.091,103.516,492.508,108.009,486.497,108.009z M486.497,89.376
									c-4.476,0-7.684,3.525-7.684,8.123c0,4.558,3.208,8.099,7.684,8.099c4.458,0,7.681-3.541,7.681-8.099
									C494.177,92.902,490.955,89.376,486.497,89.376z M488.222,102.605c-1.437-2.561-2.271-4.14-2.645-4.14h-0.249v4.14h-2.313
									V92.094h3.489c2.331,0,3.591,1.226,3.591,2.854c0,1.714-1.457,2.575-2.376,2.879v0.025c0.503,0,1.948,2.45,3.221,4.752
									H488.222z M485.709,93.882h-0.381v2.78h0.331c1.094,0,1.963-0.414,1.963-1.505
									C487.623,94.152,486.937,93.882,485.709,93.882z"/>
							</g>
						</g>
					</g>
				</g>
			</g>
		</g>
	</g>
</g>
</svg>
